<!DOCTYPE svg PUBLIC "-//W3C//DTD SVG 20010904//EN" "http://www.w3.org/TR/2001/REC-SVG-20010904/DTD/svg10.dtd">
<svg version="1.0" xmlns="http://www.w3.org/2000/svg" width="102px" height="162px" viewBox="0 0 1020 1620" preserveAspectRatio="xMidYMid meet">
<g id="layer101" fill="#d46f40" stroke="none">
 <path d="M0 810 l0 -810 510 0 510 0 0 810 0 810 -510 0 -510 0 0 -810z"/>
 </g>
<g id="layer102" fill="#f2d4c7" stroke="none">
 <path d="M0 810 l0 -810 510 0 510 0 0 810 0 810 -510 0 -510 0 0 -810z m855 710 c19 -21 16 -24 -320 -360 l-340 -340 340 -340 340 -340 -23 -22 -22 -23 -349 349 c-306 306 -348 352 -347 377 1 24 61 89 346 374 190 190 348 345 351 345 3 0 14 -9 24 -20z"/>
 </g>
<g id="layer103" fill="#ffffff" stroke="none">
 <path d="M0 810 l0 -810 510 0 510 0 0 810 0 810 -510 0 -510 0 0 -810z m538 353 l-343 -343 343 -343 343 -343 -23 -22 -24 -21 -355 357 c-203 204 -354 365 -354 375 0 9 160 177 355 372 l354 354 24 -21 23 -22 -343 -343z"/>
 </g>

</svg>