<!DOCTYPE svg PUBLIC "-//W3C//DTD SVG 20010904//EN" "http://www.w3.org/TR/2001/REC-SVG-20010904/DTD/svg10.dtd">
<svg version="1.0" xmlns="http://www.w3.org/2000/svg" width="100px" height="154px" viewBox="0 0 1000 1540" preserveAspectRatio="xMidYMid meet">
<g id="layer101" fill="#d46f40" stroke="none">
 <path d="M0 770 l0 -770 500 0 500 0 0 770 0 770 -500 0 -500 0 0 -770z"/>
 </g>
<g id="layer102" fill="#f2d4c7" stroke="none">
 <path d="M0 770 l0 -770 500 0 500 0 0 770 0 770 -500 0 -500 0 0 -770z m580 345 c285 -285 345 -350 346 -374 1 -25 -41 -71 -347 -377 l-349 -349 -22 23 -23 22 340 340 340 340 -340 340 c-336 336 -339 339 -320 360 10 11 21 20 24 20 3 0 161 -155 351 -345z"/>
 </g>
<g id="layer103" fill="#ffffff" stroke="none">
 <path d="M0 770 l0 -770 500 0 500 0 0 770 0 770 -500 0 -500 0 0 -770z m935 -31 c-1 -12 -147 -166 -355 -374 l-354 -354 -24 21 -23 22 343 343 343 343 -343 343 -342 342 22 23 23 22 356 -356 c247 -246 355 -362 354 -375z"/>
 </g>

</svg>